<mxfile host="Electron" modified="2023-04-20T13:30:47.914Z" agent="Mozilla/5.0 (Macintosh; Intel Mac OS X 10_15_7) AppleWebKit/537.36 (KHTML, like Gecko) draw.io/21.1.2 Chrome/106.0.5249.199 Electron/21.4.3 Safari/537.36" etag="fhrTywu8L1dY55jV73hu" version="21.1.2" type="device">
  <diagram name="Page-1" id="Mbqn6FMR_A7-c0GBCuQ3">
    <mxGraphModel dx="586" dy="649" grid="1" gridSize="10" guides="1" tooltips="1" connect="1" arrows="1" fold="1" page="1" pageScale="1" pageWidth="850" pageHeight="1100" math="0" shadow="0">
      <root>
        <mxCell id="0" />
        <mxCell id="1" parent="0" />
        <mxCell id="hOh-BihP512xUa1GwS6D-39" value="" style="rounded=1;whiteSpace=wrap;html=1;fillColor=none;shadow=0;glass=0;strokeWidth=2;perimeterSpacing=0;arcSize=4;" parent="1" vertex="1">
          <mxGeometry x="210" y="100" width="540" height="270" as="geometry" />
        </mxCell>
        <mxCell id="hOh-BihP512xUa1GwS6D-38" value="&lt;font style=&quot;font-size: 14px;&quot;&gt;Typical Embedded Scheduler Application&lt;/font&gt;" style="text;html=1;strokeColor=none;fillColor=none;align=center;verticalAlign=middle;whiteSpace=wrap;rounded=0;" parent="1" vertex="1">
          <mxGeometry x="210" y="110" width="540" height="20" as="geometry" />
        </mxCell>
        <mxCell id="hOh-BihP512xUa1GwS6D-36" value="" style="rounded=1;whiteSpace=wrap;html=1;fillColor=none;arcSize=4;" parent="1" vertex="1">
          <mxGeometry x="220" y="140" width="330" height="200" as="geometry" />
        </mxCell>
        <mxCell id="hOh-BihP512xUa1GwS6D-30" value="" style="rounded=1;whiteSpace=wrap;html=1;fillColor=none;dashed=1;arcSize=4;" parent="1" vertex="1">
          <mxGeometry x="570" y="140" width="170" height="130" as="geometry" />
        </mxCell>
        <mxCell id="hOh-BihP512xUa1GwS6D-2" value="&lt;font style=&quot;font-size: 10px;&quot;&gt;Scheduler&lt;br&gt;&lt;/font&gt;&lt;font style=&quot;font-size: 10px;&quot;&gt;Timer&lt;/font&gt;" style="rounded=0;whiteSpace=wrap;html=1;fillColor=none;" parent="1" vertex="1">
          <mxGeometry x="230" y="235" width="60" height="30" as="geometry" />
        </mxCell>
        <mxCell id="hOh-BihP512xUa1GwS6D-3" value="Scheduler" style="rounded=0;whiteSpace=wrap;html=1;fillColor=none;" parent="1" vertex="1">
          <mxGeometry x="310" y="220" width="90" height="60" as="geometry" />
        </mxCell>
        <mxCell id="hOh-BihP512xUa1GwS6D-8" value="Task&#39;s" style="swimlane;fontStyle=0;childLayout=stackLayout;horizontal=1;startSize=30;horizontalStack=0;resizeParent=1;resizeParentMax=0;resizeLast=0;collapsible=1;marginBottom=0;whiteSpace=wrap;html=1;rounded=1;fillColor=none;" parent="1" vertex="1">
          <mxGeometry x="440" y="190" width="100" height="120" as="geometry">
            <mxRectangle x="590" y="145" width="110" height="30" as="alternateBounds" />
          </mxGeometry>
        </mxCell>
        <mxCell id="hOh-BihP512xUa1GwS6D-9" value="Task Handler 0" style="text;strokeColor=none;fillColor=none;align=left;verticalAlign=middle;spacingLeft=4;spacingRight=4;overflow=hidden;points=[[0,0.5],[1,0.5]];portConstraint=eastwest;rotatable=0;whiteSpace=wrap;html=1;" parent="hOh-BihP512xUa1GwS6D-8" vertex="1">
          <mxGeometry y="30" width="100" height="30" as="geometry" />
        </mxCell>
        <mxCell id="hOh-BihP512xUa1GwS6D-10" value="Task Handler 1" style="text;strokeColor=none;fillColor=none;align=left;verticalAlign=middle;spacingLeft=4;spacingRight=4;overflow=hidden;points=[[0,0.5],[1,0.5]];portConstraint=eastwest;rotatable=0;whiteSpace=wrap;html=1;" parent="hOh-BihP512xUa1GwS6D-8" vertex="1">
          <mxGeometry y="60" width="100" height="30" as="geometry" />
        </mxCell>
        <mxCell id="hOh-BihP512xUa1GwS6D-11" value="Task Handler n" style="text;strokeColor=none;fillColor=none;align=left;verticalAlign=middle;spacingLeft=4;spacingRight=4;overflow=hidden;points=[[0,0.5],[1,0.5]];portConstraint=eastwest;rotatable=0;whiteSpace=wrap;html=1;" parent="hOh-BihP512xUa1GwS6D-8" vertex="1">
          <mxGeometry y="90" width="100" height="30" as="geometry" />
        </mxCell>
        <mxCell id="hOh-BihP512xUa1GwS6D-14" value="" style="endArrow=none;startArrow=classicThin;html=1;rounded=0;entryX=-0.003;entryY=0.372;entryDx=0;entryDy=0;entryPerimeter=0;endFill=0;startFill=1;" parent="1" target="hOh-BihP512xUa1GwS6D-10" edge="1">
          <mxGeometry width="50" height="50" relative="1" as="geometry">
            <mxPoint x="400" y="261" as="sourcePoint" />
            <mxPoint x="400" y="310" as="targetPoint" />
          </mxGeometry>
        </mxCell>
        <mxCell id="hOh-BihP512xUa1GwS6D-15" value="" style="endArrow=classicThin;html=1;rounded=0;entryX=0;entryY=0.167;entryDx=0;entryDy=0;endFill=1;entryPerimeter=0;" parent="1" edge="1">
          <mxGeometry width="50" height="50" relative="1" as="geometry">
            <mxPoint x="290" y="250" as="sourcePoint" />
            <mxPoint x="310" y="250.01999999999998" as="targetPoint" />
          </mxGeometry>
        </mxCell>
        <mxCell id="hOh-BihP512xUa1GwS6D-16" value="&lt;font style=&quot;font-size: 10px;&quot;&gt;Sleep&lt;/font&gt;" style="rounded=0;whiteSpace=wrap;html=1;fillColor=none;" parent="1" vertex="1">
          <mxGeometry x="330" y="310" width="50" height="20" as="geometry" />
        </mxCell>
        <mxCell id="hOh-BihP512xUa1GwS6D-17" value="" style="endArrow=none;startArrow=classicThin;html=1;rounded=0;endFill=0;startFill=1;" parent="1" edge="1">
          <mxGeometry width="50" height="50" relative="1" as="geometry">
            <mxPoint x="350" y="310" as="sourcePoint" />
            <mxPoint x="350" y="280" as="targetPoint" />
          </mxGeometry>
        </mxCell>
        <mxCell id="hOh-BihP512xUa1GwS6D-20" value="" style="endArrow=none;startArrow=classicThin;html=1;rounded=0;endFill=0;startFill=1;" parent="1" edge="1">
          <mxGeometry width="50" height="50" relative="1" as="geometry">
            <mxPoint x="360" y="280" as="sourcePoint" />
            <mxPoint x="360" y="310" as="targetPoint" />
          </mxGeometry>
        </mxCell>
        <mxCell id="hOh-BihP512xUa1GwS6D-21" value="" style="endArrow=classicThin;startArrow=none;html=1;rounded=0;entryX=-0.003;entryY=0.372;entryDx=0;entryDy=0;entryPerimeter=0;startFill=0;endFill=1;" parent="1" edge="1">
          <mxGeometry width="50" height="50" relative="1" as="geometry">
            <mxPoint x="400" y="250" as="sourcePoint" />
            <mxPoint x="440" y="250" as="targetPoint" />
          </mxGeometry>
        </mxCell>
        <mxCell id="hOh-BihP512xUa1GwS6D-22" value="&lt;font style=&quot;font-size: 10px;&quot;&gt;main()&lt;/font&gt;" style="rounded=0;whiteSpace=wrap;html=1;fillColor=none;" parent="1" vertex="1">
          <mxGeometry x="330" y="170" width="50" height="20" as="geometry" />
        </mxCell>
        <mxCell id="hOh-BihP512xUa1GwS6D-23" value="" style="endArrow=classicThin;html=1;rounded=0;exitX=0.5;exitY=1;exitDx=0;exitDy=0;endFill=1;" parent="1" source="hOh-BihP512xUa1GwS6D-22" target="hOh-BihP512xUa1GwS6D-3" edge="1">
          <mxGeometry width="50" height="50" relative="1" as="geometry">
            <mxPoint x="380" y="310" as="sourcePoint" />
            <mxPoint x="430" y="260" as="targetPoint" />
          </mxGeometry>
        </mxCell>
        <mxCell id="hOh-BihP512xUa1GwS6D-24" value="Interrupt Event" style="rounded=1;whiteSpace=wrap;html=1;fillColor=none;" parent="1" vertex="1">
          <mxGeometry x="580" y="180" width="60" height="30" as="geometry" />
        </mxCell>
        <mxCell id="hOh-BihP512xUa1GwS6D-25" value="Interrupt Handler" style="rounded=0;whiteSpace=wrap;html=1;fillColor=none;" parent="1" vertex="1">
          <mxGeometry x="670" y="180" width="60" height="30" as="geometry" />
        </mxCell>
        <mxCell id="hOh-BihP512xUa1GwS6D-26" value="Hardware &amp;amp; Platform Drivers" style="text;html=1;strokeColor=none;fillColor=none;align=center;verticalAlign=middle;whiteSpace=wrap;rounded=0;" parent="1" vertex="1">
          <mxGeometry x="590" y="140" width="140" height="40" as="geometry" />
        </mxCell>
        <mxCell id="hOh-BihP512xUa1GwS6D-27" value="Exception Event" style="rounded=1;whiteSpace=wrap;html=1;fillColor=none;" parent="1" vertex="1">
          <mxGeometry x="580" y="230" width="60" height="30" as="geometry" />
        </mxCell>
        <mxCell id="hOh-BihP512xUa1GwS6D-28" value="Exception Handler" style="rounded=0;whiteSpace=wrap;html=1;fillColor=none;" parent="1" vertex="1">
          <mxGeometry x="670" y="230" width="60" height="30" as="geometry" />
        </mxCell>
        <mxCell id="hOh-BihP512xUa1GwS6D-33" value="" style="endArrow=classicThin;html=1;rounded=0;exitX=1;exitY=0.5;exitDx=0;exitDy=0;endFill=1;" parent="1" source="hOh-BihP512xUa1GwS6D-27" target="hOh-BihP512xUa1GwS6D-28" edge="1">
          <mxGeometry width="50" height="50" relative="1" as="geometry">
            <mxPoint x="660" y="270" as="sourcePoint" />
            <mxPoint x="710" y="220" as="targetPoint" />
          </mxGeometry>
        </mxCell>
        <mxCell id="hOh-BihP512xUa1GwS6D-34" value="" style="endArrow=classicThin;html=1;rounded=0;exitX=1;exitY=0.5;exitDx=0;exitDy=0;endFill=1;" parent="1" edge="1">
          <mxGeometry width="50" height="50" relative="1" as="geometry">
            <mxPoint x="640" y="194.84000000000003" as="sourcePoint" />
            <mxPoint x="670" y="194.84000000000003" as="targetPoint" />
          </mxGeometry>
        </mxCell>
        <mxCell id="hOh-BihP512xUa1GwS6D-37" value="Main / Scheduler Context" style="text;html=1;strokeColor=none;fillColor=none;align=center;verticalAlign=middle;whiteSpace=wrap;rounded=0;" parent="1" vertex="1">
          <mxGeometry x="290" y="140" width="180" height="20" as="geometry" />
        </mxCell>
        <mxCell id="hOh-BihP512xUa1GwS6D-41" value="" style="rounded=1;whiteSpace=wrap;html=1;fillColor=none;dashed=1;arcSize=4;" parent="1" vertex="1">
          <mxGeometry x="570" y="280" width="170" height="70" as="geometry" />
        </mxCell>
        <mxCell id="hOh-BihP512xUa1GwS6D-42" value="Timer Expiration" style="rounded=1;whiteSpace=wrap;html=1;fillColor=none;" parent="1" vertex="1">
          <mxGeometry x="580" y="310" width="60" height="30" as="geometry" />
        </mxCell>
        <mxCell id="hOh-BihP512xUa1GwS6D-43" value="Timer Handler" style="rounded=0;whiteSpace=wrap;html=1;fillColor=none;" parent="1" vertex="1">
          <mxGeometry x="670" y="310" width="60" height="30" as="geometry" />
        </mxCell>
        <mxCell id="hOh-BihP512xUa1GwS6D-44" value="Timer Driven Routines&amp;nbsp;&amp;nbsp;" style="text;html=1;strokeColor=none;fillColor=none;align=center;verticalAlign=middle;whiteSpace=wrap;rounded=0;" parent="1" vertex="1">
          <mxGeometry x="590" y="280" width="140" height="30" as="geometry" />
        </mxCell>
        <mxCell id="hOh-BihP512xUa1GwS6D-48" value="" style="endArrow=classicThin;html=1;rounded=0;exitX=1;exitY=0.5;exitDx=0;exitDy=0;endFill=1;" parent="1" edge="1">
          <mxGeometry width="50" height="50" relative="1" as="geometry">
            <mxPoint x="640" y="324.84000000000003" as="sourcePoint" />
            <mxPoint x="670" y="324.84000000000003" as="targetPoint" />
          </mxGeometry>
        </mxCell>
        <mxCell id="hOh-BihP512xUa1GwS6D-49" style="edgeStyle=orthogonalEdgeStyle;rounded=0;orthogonalLoop=1;jettySize=auto;html=1;exitX=0.5;exitY=1;exitDx=0;exitDy=0;" parent="1" source="hOh-BihP512xUa1GwS6D-41" target="hOh-BihP512xUa1GwS6D-41" edge="1">
          <mxGeometry relative="1" as="geometry" />
        </mxCell>
      </root>
    </mxGraphModel>
  </diagram>
</mxfile>
